<svg width="346" height="55" viewBox="0 0 346 55" fill="none" xmlns="http://www.w3.org/2000/svg">
<rect x="0.5" y="0.537109" width="345" height="54" rx="10" fill="white"/>
<rect x="52" y="0.537109" width="242" height="54" rx="10" fill="white"/>
<rect width="24" height="24" transform="translate(67 15.5371)" fill="white"/>
<path fill-rule="evenodd" clip-rule="evenodd" d="M90.04 27.7984C90.04 26.983 89.9668 26.1989 89.8309 25.4462H79V29.8946H85.1891C84.9225 31.3321 84.1123 32.55 82.8943 33.3655V36.2509H86.6109C88.7855 34.2489 90.04 31.3007 90.04 27.7984Z" fill="#4285F4"/>
<path fill-rule="evenodd" clip-rule="evenodd" d="M78.9999 39.0369C82.1049 39.0369 84.7081 38.0072 86.6108 36.2508L82.8942 33.3653C81.8644 34.0553 80.5472 34.4631 78.9999 34.4631C76.0047 34.4631 73.4694 32.4401 72.5651 29.7219H68.7231V32.7015C70.6154 36.4599 74.5044 39.0369 78.9999 39.0369Z" fill="#34A853"/>
<path fill-rule="evenodd" clip-rule="evenodd" d="M72.5652 29.7222C72.3352 29.0322 72.2045 28.2952 72.2045 27.5372C72.2045 26.7793 72.3352 26.0422 72.5652 25.3522V22.3727H68.7232C67.9443 23.9252 67.5 25.6815 67.5 27.5372C67.5 29.3929 67.9443 31.1493 68.7232 32.7018L72.5652 29.7222Z" fill="#FBBC05"/>
<path fill-rule="evenodd" clip-rule="evenodd" d="M78.9999 20.611C80.6883 20.611 82.2042 21.1912 83.396 22.3307L86.6944 19.0323C84.7029 17.1767 82.0997 16.0371 78.9999 16.0371C74.5044 16.0371 70.6154 18.6142 68.7231 22.3726L72.5651 25.3521C73.4694 22.6339 76.0047 20.611 78.9999 20.611Z" fill="#EA4335"/>
<path d="M114.926 29.875C114.926 29.582 114.88 29.3216 114.789 29.0938C114.704 28.8659 114.551 28.6576 114.33 28.4688C114.109 28.2799 113.796 28.0977 113.393 27.9219C112.995 27.7396 112.488 27.554 111.869 27.3652C111.192 27.1569 110.567 26.9258 109.994 26.6719C109.428 26.4115 108.933 26.112 108.51 25.7734C108.087 25.4284 107.758 25.0345 107.523 24.5918C107.289 24.1426 107.172 23.625 107.172 23.0391C107.172 22.4596 107.292 21.9323 107.533 21.457C107.781 20.9818 108.129 20.5716 108.578 20.2266C109.034 19.875 109.571 19.6048 110.189 19.416C110.808 19.2207 111.492 19.123 112.24 19.123C113.295 19.123 114.203 19.3184 114.965 19.709C115.733 20.0996 116.322 20.6237 116.732 21.2812C117.149 21.9388 117.357 22.6647 117.357 23.459H114.926C114.926 22.9902 114.825 22.5768 114.623 22.2188C114.428 21.8542 114.128 21.5677 113.725 21.3594C113.327 21.151 112.823 21.0469 112.211 21.0469C111.632 21.0469 111.15 21.1348 110.766 21.3105C110.382 21.4863 110.095 21.724 109.906 22.0234C109.717 22.3229 109.623 22.6615 109.623 23.0391C109.623 23.306 109.685 23.5501 109.809 23.7715C109.932 23.9863 110.121 24.1882 110.375 24.377C110.629 24.5592 110.948 24.7318 111.332 24.8945C111.716 25.0573 112.169 25.2135 112.689 25.3633C113.477 25.5977 114.164 25.8581 114.75 26.1445C115.336 26.4245 115.824 26.7435 116.215 27.1016C116.605 27.4596 116.898 27.8665 117.094 28.3223C117.289 28.7715 117.387 29.2826 117.387 29.8555C117.387 30.4544 117.266 30.9948 117.025 31.4766C116.785 31.9518 116.439 32.3587 115.99 32.6973C115.548 33.0293 115.014 33.2865 114.389 33.4688C113.77 33.6445 113.08 33.7324 112.318 33.7324C111.635 33.7324 110.961 33.6413 110.297 33.459C109.639 33.2767 109.04 33 108.5 32.6289C107.96 32.2513 107.53 31.7826 107.211 31.2227C106.892 30.6562 106.732 29.9954 106.732 29.2402H109.184C109.184 29.7025 109.262 30.0964 109.418 30.4219C109.581 30.7474 109.805 31.0143 110.092 31.2227C110.378 31.4245 110.71 31.5742 111.088 31.6719C111.472 31.7695 111.882 31.8184 112.318 31.8184C112.891 31.8184 113.37 31.737 113.754 31.5742C114.145 31.4115 114.438 31.1836 114.633 30.8906C114.828 30.5977 114.926 30.2591 114.926 29.875ZM121.84 22.9707V33.5371H119.477V22.9707H121.84ZM119.32 20.1973C119.32 19.8392 119.438 19.543 119.672 19.3086C119.913 19.0677 120.245 18.9473 120.668 18.9473C121.085 18.9473 121.413 19.0677 121.654 19.3086C121.895 19.543 122.016 19.8392 122.016 20.1973C122.016 20.5488 121.895 20.8418 121.654 21.0762C121.413 21.3105 121.085 21.4277 120.668 21.4277C120.245 21.4277 119.913 21.3105 119.672 21.0762C119.438 20.8418 119.32 20.5488 119.32 20.1973ZM131.186 22.9707H133.324V33.2441C133.324 34.1947 133.122 35.002 132.719 35.666C132.315 36.3301 131.752 36.8346 131.029 37.1797C130.307 37.5312 129.47 37.707 128.52 37.707C128.116 37.707 127.667 37.6484 127.172 37.5312C126.684 37.4141 126.208 37.2253 125.746 36.9648C125.29 36.7109 124.91 36.3757 124.604 35.959L125.707 34.5723C126.085 35.0215 126.501 35.3503 126.957 35.5586C127.413 35.7669 127.891 35.8711 128.393 35.8711C128.933 35.8711 129.392 35.7702 129.77 35.5684C130.154 35.373 130.45 35.0833 130.658 34.6992C130.867 34.3151 130.971 33.8464 130.971 33.293V25.3633L131.186 22.9707ZM124.008 28.3711V28.166C124.008 27.3652 124.105 26.6361 124.301 25.9785C124.496 25.3145 124.776 24.7448 125.141 24.2695C125.505 23.7878 125.948 23.4199 126.469 23.166C126.99 22.9056 127.579 22.7754 128.236 22.7754C128.92 22.7754 129.503 22.8991 129.984 23.1465C130.473 23.3939 130.88 23.7487 131.205 24.2109C131.531 24.6667 131.785 25.2135 131.967 25.8516C132.156 26.4831 132.296 27.1862 132.387 27.9609V28.6152C132.302 29.3704 132.159 30.0605 131.957 30.6855C131.755 31.3105 131.488 31.8509 131.156 32.3066C130.824 32.7624 130.414 33.1139 129.926 33.3613C129.444 33.6087 128.874 33.7324 128.217 33.7324C127.572 33.7324 126.99 33.599 126.469 33.332C125.954 33.0651 125.512 32.6908 125.141 32.209C124.776 31.7272 124.496 31.1608 124.301 30.5098C124.105 29.8522 124.008 29.1393 124.008 28.3711ZM126.361 28.166V28.3711C126.361 28.8529 126.407 29.3021 126.498 29.7188C126.596 30.1354 126.742 30.5033 126.938 30.8223C127.139 31.1348 127.393 31.3822 127.699 31.5645C128.012 31.7402 128.38 31.8281 128.803 31.8281C129.356 31.8281 129.809 31.7109 130.16 31.4766C130.518 31.2422 130.792 30.9264 130.98 30.5293C131.176 30.1257 131.312 29.6764 131.391 29.1816V27.4141C131.352 27.0299 131.27 26.6719 131.146 26.3398C131.029 26.0078 130.87 25.7181 130.668 25.4707C130.466 25.2168 130.212 25.0215 129.906 24.8848C129.6 24.7415 129.239 24.6699 128.822 24.6699C128.399 24.6699 128.031 24.7611 127.719 24.9434C127.406 25.1257 127.149 25.3763 126.947 25.6953C126.752 26.0143 126.605 26.3854 126.508 26.8086C126.41 27.2318 126.361 27.6842 126.361 28.166ZM138.1 25.2266V33.5371H135.746V22.9707H137.963L138.1 25.2266ZM137.68 27.8633L136.918 27.8535C136.924 27.1048 137.029 26.418 137.23 25.793C137.439 25.168 137.725 24.6309 138.09 24.1816C138.461 23.7324 138.904 23.3874 139.418 23.1465C139.932 22.8991 140.505 22.7754 141.137 22.7754C141.645 22.7754 142.104 22.847 142.514 22.9902C142.93 23.127 143.285 23.3516 143.578 23.6641C143.878 23.9766 144.105 24.3835 144.262 24.8848C144.418 25.3796 144.496 25.9883 144.496 26.7109V33.5371H142.133V26.7012C142.133 26.1934 142.058 25.793 141.908 25.5C141.765 25.2005 141.553 24.9889 141.273 24.8652C141 24.735 140.658 24.6699 140.248 24.6699C139.844 24.6699 139.483 24.7546 139.164 24.9238C138.845 25.0931 138.575 25.3242 138.354 25.6172C138.139 25.9102 137.973 26.2487 137.855 26.6328C137.738 27.0169 137.68 27.4271 137.68 27.8633ZM154.73 19.3184V33.5371H152.279V19.3184H154.73ZM159.877 25.2266V33.5371H157.523V22.9707H159.74L159.877 25.2266ZM159.457 27.8633L158.695 27.8535C158.702 27.1048 158.806 26.418 159.008 25.793C159.216 25.168 159.503 24.6309 159.867 24.1816C160.238 23.7324 160.681 23.3874 161.195 23.1465C161.71 22.8991 162.283 22.7754 162.914 22.7754C163.422 22.7754 163.881 22.847 164.291 22.9902C164.708 23.127 165.062 23.3516 165.355 23.6641C165.655 23.9766 165.883 24.3835 166.039 24.8848C166.195 25.3796 166.273 25.9883 166.273 26.7109V33.5371H163.91V26.7012C163.91 26.1934 163.835 25.793 163.686 25.5C163.542 25.2005 163.331 24.9889 163.051 24.8652C162.777 24.735 162.436 24.6699 162.025 24.6699C161.622 24.6699 161.26 24.7546 160.941 24.9238C160.622 25.0931 160.352 25.3242 160.131 25.6172C159.916 25.9102 159.75 26.2487 159.633 26.6328C159.516 27.0169 159.457 27.4271 159.457 27.8633ZM176.527 31.1934L178.969 22.9707H180.473L180.062 25.4316L177.602 33.5371H176.254L176.527 31.1934ZM175.092 22.9707L176.996 31.2324L177.152 33.5371H175.648L172.787 22.9707H175.092ZM182.758 31.1348L184.604 22.9707H186.898L184.047 33.5371H182.543L182.758 31.1348ZM180.727 22.9707L183.139 31.0957L183.441 33.5371H182.094L179.604 25.4219L179.193 22.9707H180.727ZM191.02 22.9707V33.5371H188.656V22.9707H191.02ZM188.5 20.1973C188.5 19.8392 188.617 19.543 188.852 19.3086C189.092 19.0677 189.424 18.9473 189.848 18.9473C190.264 18.9473 190.593 19.0677 190.834 19.3086C191.075 19.543 191.195 19.8392 191.195 20.1973C191.195 20.5488 191.075 20.8418 190.834 21.0762C190.593 21.3105 190.264 21.4277 189.848 21.4277C189.424 21.4277 189.092 21.3105 188.852 21.0762C188.617 20.8418 188.5 20.5488 188.5 20.1973ZM198.441 22.9707V24.6895H192.484V22.9707H198.441ZM194.203 20.3828H196.557V30.6172C196.557 30.9427 196.602 31.1934 196.693 31.3691C196.791 31.5384 196.924 31.6523 197.094 31.7109C197.263 31.7695 197.462 31.7988 197.689 31.7988C197.852 31.7988 198.008 31.7891 198.158 31.7695C198.308 31.75 198.428 31.7305 198.52 31.7109L198.529 33.5078C198.334 33.5664 198.106 33.6185 197.846 33.6641C197.592 33.7096 197.299 33.7324 196.967 33.7324C196.426 33.7324 195.948 33.638 195.531 33.4492C195.115 33.2539 194.789 32.9382 194.555 32.502C194.32 32.0658 194.203 31.4863 194.203 30.7637V20.3828ZM202.582 18.5371V33.5371H200.238V18.5371H202.582ZM202.172 27.8633L201.41 27.8535C201.417 27.1243 201.518 26.4505 201.713 25.832C201.915 25.2135 202.195 24.6764 202.553 24.2207C202.917 23.7585 203.354 23.4036 203.861 23.1562C204.369 22.9023 204.932 22.7754 205.551 22.7754C206.072 22.7754 206.54 22.847 206.957 22.9902C207.38 23.1335 207.745 23.3646 208.051 23.6836C208.357 23.9961 208.588 24.4062 208.744 24.9141C208.907 25.4154 208.988 26.0273 208.988 26.75V33.5371H206.625V26.7305C206.625 26.2227 206.55 25.819 206.4 25.5195C206.257 25.2201 206.046 25.0052 205.766 24.875C205.486 24.7383 205.144 24.6699 204.74 24.6699C204.317 24.6699 203.943 24.7546 203.617 24.9238C203.298 25.0931 203.031 25.3242 202.816 25.6172C202.602 25.9102 202.439 26.2487 202.328 26.6328C202.224 27.0169 202.172 27.4271 202.172 27.8633ZM227.504 26.2715V31.7012C227.302 31.9681 226.986 32.2611 226.557 32.5801C226.133 32.8926 225.57 33.1628 224.867 33.3906C224.164 33.6185 223.288 33.7324 222.24 33.7324C221.348 33.7324 220.531 33.5827 219.789 33.2832C219.047 32.9772 218.406 32.5312 217.865 31.9453C217.331 31.3594 216.918 30.6465 216.625 29.8066C216.332 28.9603 216.186 27.9967 216.186 26.916V25.9297C216.186 24.8555 216.319 23.8984 216.586 23.0586C216.859 22.2122 217.25 21.4961 217.758 20.9102C218.266 20.3242 218.878 19.8815 219.594 19.582C220.316 19.276 221.133 19.123 222.045 19.123C223.21 19.123 224.174 19.3184 224.936 19.709C225.704 20.0931 226.296 20.627 226.713 21.3105C227.13 21.9941 227.393 22.7754 227.504 23.6543H225.102C225.023 23.1595 224.87 22.7168 224.643 22.3262C224.421 21.9355 224.102 21.6296 223.686 21.4082C223.275 21.1803 222.742 21.0664 222.084 21.0664C221.518 21.0664 221.02 21.1738 220.59 21.3887C220.16 21.6035 219.802 21.9193 219.516 22.3359C219.236 22.7526 219.024 23.2604 218.881 23.8594C218.738 24.4583 218.666 25.1419 218.666 25.9102V26.916C218.666 27.6973 218.747 28.3906 218.91 28.9961C219.079 29.6016 219.32 30.1126 219.633 30.5293C219.952 30.946 220.339 31.2617 220.795 31.4766C221.251 31.6849 221.765 31.7891 222.338 31.7891C222.898 31.7891 223.357 31.7435 223.715 31.6523C224.073 31.5547 224.356 31.4408 224.564 31.3105C224.779 31.1738 224.945 31.0436 225.062 30.9199V28.0977H222.104V26.2715H227.504ZM229.535 28.3711V28.1465C229.535 27.3848 229.646 26.6784 229.867 26.0273C230.089 25.3698 230.408 24.8001 230.824 24.3184C231.247 23.8301 231.762 23.4525 232.367 23.1855C232.979 22.9121 233.669 22.7754 234.438 22.7754C235.212 22.7754 235.902 22.9121 236.508 23.1855C237.12 23.4525 237.637 23.8301 238.061 24.3184C238.484 24.8001 238.806 25.3698 239.027 26.0273C239.249 26.6784 239.359 27.3848 239.359 28.1465V28.3711C239.359 29.1328 239.249 29.8392 239.027 30.4902C238.806 31.1413 238.484 31.7109 238.061 32.1992C237.637 32.681 237.123 33.0586 236.518 33.332C235.912 33.599 235.225 33.7324 234.457 33.7324C233.682 33.7324 232.989 33.599 232.377 33.332C231.771 33.0586 231.257 32.681 230.834 32.1992C230.411 31.7109 230.089 31.1413 229.867 30.4902C229.646 29.8392 229.535 29.1328 229.535 28.3711ZM231.889 28.1465V28.3711C231.889 28.8464 231.938 29.2956 232.035 29.7188C232.133 30.1419 232.286 30.513 232.494 30.832C232.702 31.151 232.969 31.4017 233.295 31.584C233.62 31.7663 234.008 31.8574 234.457 31.8574C234.893 31.8574 235.271 31.7663 235.59 31.584C235.915 31.4017 236.182 31.151 236.391 30.832C236.599 30.513 236.752 30.1419 236.85 29.7188C236.954 29.2956 237.006 28.8464 237.006 28.3711V28.1465C237.006 27.6777 236.954 27.235 236.85 26.8184C236.752 26.3952 236.596 26.0208 236.381 25.6953C236.173 25.3698 235.906 25.1159 235.58 24.9336C235.261 24.7448 234.88 24.6504 234.438 24.6504C233.995 24.6504 233.611 24.7448 233.285 24.9336C232.966 25.1159 232.702 25.3698 232.494 25.6953C232.286 26.0208 232.133 26.3952 232.035 26.8184C231.938 27.235 231.889 27.6777 231.889 28.1465ZM240.883 28.3711V28.1465C240.883 27.3848 240.993 26.6784 241.215 26.0273C241.436 25.3698 241.755 24.8001 242.172 24.3184C242.595 23.8301 243.109 23.4525 243.715 23.1855C244.327 22.9121 245.017 22.7754 245.785 22.7754C246.56 22.7754 247.25 22.9121 247.855 23.1855C248.467 23.4525 248.985 23.8301 249.408 24.3184C249.831 24.8001 250.154 25.3698 250.375 26.0273C250.596 26.6784 250.707 27.3848 250.707 28.1465V28.3711C250.707 29.1328 250.596 29.8392 250.375 30.4902C250.154 31.1413 249.831 31.7109 249.408 32.1992C248.985 32.681 248.471 33.0586 247.865 33.332C247.26 33.599 246.573 33.7324 245.805 33.7324C245.03 33.7324 244.337 33.599 243.725 33.332C243.119 33.0586 242.605 32.681 242.182 32.1992C241.758 31.7109 241.436 31.1413 241.215 30.4902C240.993 29.8392 240.883 29.1328 240.883 28.3711ZM243.236 28.1465V28.3711C243.236 28.8464 243.285 29.2956 243.383 29.7188C243.48 30.1419 243.633 30.513 243.842 30.832C244.05 31.151 244.317 31.4017 244.643 31.584C244.968 31.7663 245.355 31.8574 245.805 31.8574C246.241 31.8574 246.618 31.7663 246.938 31.584C247.263 31.4017 247.53 31.151 247.738 30.832C247.947 30.513 248.1 30.1419 248.197 29.7188C248.301 29.2956 248.354 28.8464 248.354 28.3711V28.1465C248.354 27.6777 248.301 27.235 248.197 26.8184C248.1 26.3952 247.943 26.0208 247.729 25.6953C247.52 25.3698 247.253 25.1159 246.928 24.9336C246.609 24.7448 246.228 24.6504 245.785 24.6504C245.342 24.6504 244.958 24.7448 244.633 24.9336C244.314 25.1159 244.05 25.3698 243.842 25.6953C243.633 26.0208 243.48 26.3952 243.383 26.8184C243.285 27.235 243.236 27.6777 243.236 28.1465ZM259.447 22.9707H261.586V33.2441C261.586 34.1947 261.384 35.002 260.98 35.666C260.577 36.3301 260.014 36.8346 259.291 37.1797C258.568 37.5312 257.732 37.707 256.781 37.707C256.378 37.707 255.928 37.6484 255.434 37.5312C254.945 37.4141 254.47 37.2253 254.008 36.9648C253.552 36.7109 253.171 36.3757 252.865 35.959L253.969 34.5723C254.346 35.0215 254.763 35.3503 255.219 35.5586C255.674 35.7669 256.153 35.8711 256.654 35.8711C257.195 35.8711 257.654 35.7702 258.031 35.5684C258.415 35.373 258.712 35.0833 258.92 34.6992C259.128 34.3151 259.232 33.8464 259.232 33.293V25.3633L259.447 22.9707ZM252.27 28.3711V28.166C252.27 27.3652 252.367 26.6361 252.562 25.9785C252.758 25.3145 253.038 24.7448 253.402 24.2695C253.767 23.7878 254.21 23.4199 254.73 23.166C255.251 22.9056 255.84 22.7754 256.498 22.7754C257.182 22.7754 257.764 22.8991 258.246 23.1465C258.734 23.3939 259.141 23.7487 259.467 24.2109C259.792 24.6667 260.046 25.2135 260.229 25.8516C260.417 26.4831 260.557 27.1862 260.648 27.9609V28.6152C260.564 29.3704 260.421 30.0605 260.219 30.6855C260.017 31.3105 259.75 31.8509 259.418 32.3066C259.086 32.7624 258.676 33.1139 258.188 33.3613C257.706 33.6087 257.136 33.7324 256.479 33.7324C255.834 33.7324 255.251 33.599 254.73 33.332C254.216 33.0651 253.773 32.6908 253.402 32.209C253.038 31.7272 252.758 31.1608 252.562 30.5098C252.367 29.8522 252.27 29.1393 252.27 28.3711ZM254.623 28.166V28.3711C254.623 28.8529 254.669 29.3021 254.76 29.7188C254.857 30.1354 255.004 30.5033 255.199 30.8223C255.401 31.1348 255.655 31.3822 255.961 31.5645C256.273 31.7402 256.641 31.8281 257.064 31.8281C257.618 31.8281 258.07 31.7109 258.422 31.4766C258.78 31.2422 259.053 30.9264 259.242 30.5293C259.438 30.1257 259.574 29.6764 259.652 29.1816V27.4141C259.613 27.0299 259.532 26.6719 259.408 26.3398C259.291 26.0078 259.132 25.7181 258.93 25.4707C258.728 25.2168 258.474 25.0215 258.168 24.8848C257.862 24.7415 257.501 24.6699 257.084 24.6699C256.661 24.6699 256.293 24.7611 255.98 24.9434C255.668 25.1257 255.411 25.3763 255.209 25.6953C255.014 26.0143 254.867 26.3854 254.77 26.8086C254.672 27.2318 254.623 27.6842 254.623 28.166ZM266.547 18.5371V33.5371H264.184V18.5371H266.547ZM273.783 33.7324C273.002 33.7324 272.296 33.6055 271.664 33.3516C271.039 33.0911 270.505 32.7298 270.062 32.2676C269.626 31.8053 269.291 31.2617 269.057 30.6367C268.822 30.0117 268.705 29.3379 268.705 28.6152V28.2246C268.705 27.3978 268.826 26.6491 269.066 25.9785C269.307 25.3079 269.643 24.735 270.072 24.2598C270.502 23.778 271.01 23.4102 271.596 23.1562C272.182 22.9023 272.816 22.7754 273.5 22.7754C274.255 22.7754 274.916 22.9023 275.482 23.1562C276.049 23.4102 276.518 23.7682 276.889 24.2305C277.266 24.6862 277.546 25.2298 277.729 25.8613C277.917 26.4928 278.012 27.1895 278.012 27.9512V28.957H269.848V27.2676H275.688V27.082C275.674 26.6589 275.59 26.2617 275.434 25.8906C275.284 25.5195 275.053 25.2201 274.74 24.9922C274.428 24.7643 274.011 24.6504 273.49 24.6504C273.1 24.6504 272.751 24.735 272.445 24.9043C272.146 25.0671 271.895 25.3047 271.693 25.6172C271.492 25.9297 271.335 26.3073 271.225 26.75C271.12 27.1862 271.068 27.6777 271.068 28.2246V28.6152C271.068 29.0775 271.13 29.5072 271.254 29.9043C271.384 30.2949 271.573 30.6367 271.82 30.9297C272.068 31.2227 272.367 31.4538 272.719 31.623C273.07 31.7858 273.471 31.8672 273.92 31.8672C274.486 31.8672 274.991 31.7533 275.434 31.5254C275.876 31.2975 276.26 30.9753 276.586 30.5586L277.826 31.7598C277.598 32.0918 277.302 32.4108 276.938 32.7168C276.573 33.0163 276.127 33.2604 275.6 33.4492C275.079 33.638 274.473 33.7324 273.783 33.7324Z" fill="black" fill-opacity="0.54"/>
</svg>
